<svg id="Capa_1" enable-background="new 0 0 511.993 511.993" height="512" viewBox="0 0 511.993 511.993" width="512" xmlns="http://www.w3.org/2000/svg"><path id="XMLID_1165_" d="m250.446 133.332c2.829 0 5.64-1.193 7.617-3.515 3.582-4.205 3.077-10.516-1.127-14.097l-11.342-9.662c-4.206-3.582-10.517-3.077-14.097 1.127-3.582 4.205-3.077 10.516 1.127 14.097l11.342 9.662c1.883 1.604 4.187 2.388 6.48 2.388z"/><path id="XMLID_1196_" d="m238.295 197.725 11.342 9.661c1.882 1.604 4.187 2.387 6.479 2.387 2.829 0 5.64-1.194 7.618-3.516 3.581-4.204 3.076-10.516-1.128-14.097l-11.342-9.661c-4.204-3.582-10.516-3.075-14.097 1.128-3.581 4.205-3.076 10.517 1.128 14.098z"/><path id="XMLID_1210_" d="m174.183 178.11-11.221 9.049c-4.299 3.467-4.974 9.763-1.507 14.062 1.976 2.45 4.87 3.723 7.791 3.723 2.204 0 4.422-.726 6.271-2.216l11.221-9.049c4.299-3.467 4.974-9.763 1.507-14.062-3.468-4.299-9.764-4.973-14.062-1.507z"/><path id="XMLID_1256_" d="m509.148 357.103c-10.513-44.197-26.444-87.142-47.351-127.643-2.533-4.908-8.565-6.833-13.473-4.299-4.908 2.533-6.833 8.565-4.299 13.473 20.164 39.061 35.528 80.476 45.666 123.097 5.937 24.957.227 50.808-15.666 70.923-15.866 20.083-39.646 31.601-65.242 31.601h-32.865v-94.121c0-22.479-18.289-40.768-40.768-40.768h-158.31c-22.479 0-40.768 18.289-40.768 40.768v94.121h-32.865c-25.596 0-49.375-11.518-65.241-31.601-15.892-20.116-21.602-45.966-15.666-70.923 28.642-120.414 97.393-227.133 193.587-300.497 23.614-18.01 56.601-18.01 80.215 0 38.005 28.985 72.038 63.48 101.151 102.529 3.301 4.427 9.566 5.34 13.995 2.04 4.428-3.301 5.341-9.567 2.04-13.995-30.227-40.54-65.573-76.364-105.057-106.477-30.756-23.458-73.716-23.456-104.473 0-99.853 76.155-171.206 186.878-200.913 311.771-7.361 30.947-.279 63.003 19.429 87.95 19.683 24.914 49.182 39.202 80.935 39.202h305.576c31.753 0 61.252-14.289 80.935-39.202 19.708-24.946 26.79-57.003 19.428-87.949zm-353.074 13.03c0-11.452 9.316-20.768 20.768-20.768h158.31c11.452 0 20.768 9.316 20.768 20.768v94.121h-199.846z"/><path id="XMLID_1299_" d="m430.656 204.939c2.63 0 5.21-1.06 7.07-2.92 1.86-1.87 2.93-4.44 2.93-7.08 0-2.63-1.07-5.21-2.93-7.07s-4.44-2.93-7.07-2.93-5.21 1.07-7.07 2.93-2.93 4.44-2.93 7.07c0 2.64 1.07 5.22 2.93 7.08s4.44 2.92 7.07 2.92z"/></svg>